<svg width="163" height="90" viewBox="0 0 163 90" fill="none" xmlns="http://www.w3.org/2000/svg">
<path d="M0 80.9152C0 82.5466 0.489 84.1301 1.467 85.6655C2.445 87.201 3.749 88.3046 5.379 88.9764C7.009 89.7441 8.802 90.08 10.758 89.984C12.714 89.888 14.3983 89.4082 15.811 88.5445L76.936 52.5573C79.9787 50.734 81.5 48.1909 81.5 44.928C81.5 41.6652 79.9787 39.2181 76.936 37.5866L15.811 1.59943C14.2897 0.639774 12.6053 0.11196 10.758 0.0159943C8.91067 -0.0799716 7.11767 0.255909 5.379 1.02364C3.749 1.79136 2.445 2.89497 1.467 4.33446C0.489 5.77395 0 7.3094 0 8.94082L0 80.9152ZM81.5 80.9152C81.5 82.5466 81.989 84.1301 82.967 85.6655C83.945 87.201 85.249 88.3046 86.879 88.9764C88.509 89.7441 90.302 90.08 92.258 89.984C94.214 89.888 95.8983 89.4082 97.311 88.5445L158.436 52.5573C161.479 50.734 163 48.1909 163 44.928C163 41.6652 161.479 39.2181 158.436 37.5866L97.311 1.59943C95.7897 0.639774 94.1053 0.11196 92.258 0.0159943C90.4107 -0.0799716 88.6177 0.255909 86.879 1.02364C85.249 1.79136 83.945 2.89497 82.967 4.33446C81.989 5.77395 81.5 7.3094 81.5 8.94082V80.9152Z" fill="#E4E4E4" fill-opacity="0.5"/>
</svg>
