<svg width="581" height="488" viewBox="0 0 581 488" fill="none" xmlns="http://www.w3.org/2000/svg">
<g clip-path="url(#clip0_14_753)">
<path d="M413.703 79.9244H362.236V32.9909L413.703 79.9244Z" fill="#3F3D56"/>
<path d="M419.717 78.3879H160.805V437.204H419.717V78.3879Z" fill="#E6E6E6"/>
<path d="M217.096 103.546H186.636V167.93H217.096V103.546Z" fill="white"/>
<path d="M264.211 103.546H233.751V167.93H264.211V103.546Z" fill="white"/>
<path d="M213.081 194.802H182.621V259.186H213.081V194.802Z" fill="white"/>
<path d="M264.211 194.802H233.751V259.186H264.211V194.802Z" fill="white"/>
<path d="M213.081 279.238H182.621V343.622H213.081V279.238Z" fill="white"/>
<path d="M263.064 278.087H232.604V342.471H263.064V278.087Z" fill="white"/>
<path d="M307.336 372.964H276.876V437.348H307.336V372.964Z" fill="#CCCCCC"/>
<path d="M353.357 278.087H322.896V342.471H353.357V278.087Z" fill="white"/>
<path d="M404.487 278.087H374.026V342.471H404.487V278.087Z" fill="white"/>
<path d="M354.504 194.12H324.043V258.504H354.504V194.12Z" fill="white"/>
<path d="M405.634 194.12H375.173V258.504H405.634V194.12Z" fill="white"/>
<path d="M354.504 103.546H324.043V167.93H354.504V103.546Z" fill="white"/>
<path d="M405.634 103.546H375.173V167.93H405.634V103.546Z" fill="white"/>
<path d="M419.717 161.323H160.805V171.144H419.717V161.323Z" fill="#3F3D56"/>
<path d="M419.717 237.711H160.805V243.167H419.717V237.711Z" fill="#3F3D56"/>
<path d="M419.717 220.251H160.805V225.707H419.717V220.251Z" fill="#3F3D56"/>
<path d="M186.369 347.927V304.277H180.93V347.927H186.369Z" fill="#3F3D56"/>
<path d="M216.83 347.928V304.277H211.39V347.928H216.83Z" fill="#3F3D56"/>
<path d="M247.29 347.927V304.277H241.851V347.927H247.29Z" fill="#3F3D56"/>
<path d="M277.75 347.928V304.277H272.311V347.928H277.75Z" fill="#3F3D56"/>
<path d="M308.21 347.927V304.277H302.771V347.927H308.21Z" fill="#3F3D56"/>
<path d="M338.671 347.927V304.277H333.231V347.927H338.671Z" fill="#3F3D56"/>
<path d="M369.131 347.927V304.277H363.692V347.927H369.131Z" fill="#3F3D56"/>
<path d="M399.591 347.927V304.277H394.152V347.927H399.591Z" fill="#3F3D56"/>
<path d="M186.913 264.992V221.342H181.474V264.992H186.913Z" fill="#3F3D56"/>
<path d="M217.374 264.992V221.342H211.934V264.992H217.374Z" fill="#3F3D56"/>
<path d="M247.834 264.992V221.342H242.395V264.992H247.834Z" fill="#3F3D56"/>
<path d="M278.294 264.992V221.342H272.855V264.992H278.294Z" fill="#3F3D56"/>
<path d="M308.754 264.992V221.342H303.315V264.992H308.754Z" fill="#3F3D56"/>
<path d="M339.215 264.992V221.342H333.775V264.992H339.215Z" fill="#3F3D56"/>
<path d="M369.675 264.992V221.342H364.235V264.992H369.675Z" fill="#3F3D56"/>
<path d="M400.135 264.992V221.342H394.696V264.992H400.135Z" fill="#3F3D56"/>
<path d="M186.913 167.871V124.221H181.474V167.871H186.913Z" fill="#3F3D56"/>
<path d="M217.374 167.871V124.221H211.934V167.871H217.374Z" fill="#3F3D56"/>
<path d="M247.834 167.871V124.221H242.394V167.871H247.834Z" fill="#3F3D56"/>
<path d="M278.294 167.871V124.221H272.855V167.871H278.294Z" fill="#3F3D56"/>
<path d="M308.754 167.871V124.221H303.315V167.871H308.754Z" fill="#3F3D56"/>
<path d="M339.215 167.871V124.221H333.775V167.871H339.215Z" fill="#3F3D56"/>
<path d="M369.675 167.871V124.221H364.235V167.871H369.675Z" fill="#3F3D56"/>
<path d="M400.135 167.871V124.221H394.696V167.871H400.135Z" fill="#3F3D56"/>
<path d="M419.717 139.498H160.805V144.954H419.717V139.498Z" fill="#3F3D56"/>
<path d="M419.717 122.038H160.805V127.494H419.717V122.038Z" fill="#3F3D56"/>
<path d="M419.717 256.262H160.805V266.084H419.717V256.262Z" fill="#3F3D56"/>
<path d="M431.631 74.3506H148.89V88.9858H431.631V74.3506Z" fill="#3F3D56"/>
<path d="M217.153 386.886V372.964H200.499V386.886H215.765H217.153Z" fill="white"/>
<path d="M215.765 398.023H200.499V411.946H217.153V398.023H215.765Z" fill="white"/>
<path d="M244.911 372.964H228.256V386.886H244.911V372.964Z" fill="white"/>
<path d="M244.911 398.024H228.256V411.946H244.911V398.024Z" fill="white"/>
<path d="M352.99 386.886V372.964H336.335V386.886H351.602H352.99Z" fill="white"/>
<path d="M351.602 398.023H336.335V411.946H352.99V398.023H351.602Z" fill="white"/>
<path d="M380.747 372.964H364.093V386.886H380.747V372.964Z" fill="white"/>
<path d="M380.747 398.024H364.093V411.946H380.747V398.024Z" fill="white"/>
<path d="M419.717 339.197H160.805V349.019H419.717V339.197Z" fill="#3F3D56"/>
<path d="M419.717 321.737H160.805V327.194H419.717V321.737Z" fill="#3F3D56"/>
<path d="M419.717 304.277H160.805V309.734H419.717V304.277Z" fill="#3F3D56"/>
<path d="M239.188 432.527C239.189 432.223 239.185 431.921 239.176 431.62C238.943 423.576 230.988 421.394 226.723 425.202C225.378 424.03 223.655 423.384 221.873 423.384C220.09 423.384 218.368 424.03 217.022 425.202C212.739 421.454 204.942 423.481 204.685 431.434C204.675 431.734 204.67 432.036 204.67 432.34C204.682 434.013 204.784 435.683 204.976 437.345H238.886C239.071 435.745 239.171 434.137 239.188 432.527Z" fill="#5D6E1E"/>
<path d="M373.963 432.527C373.964 432.223 373.96 431.921 373.951 431.62C373.718 423.576 365.763 421.394 361.498 425.202C360.153 424.03 358.43 423.384 356.648 423.384C354.865 423.384 353.143 424.03 351.797 425.202C347.514 421.454 339.717 423.481 339.46 431.434C339.45 431.734 339.445 432.036 339.445 432.34C339.457 434.013 339.559 435.683 339.751 437.345H373.661C373.846 435.745 373.946 434.137 373.963 432.527Z" fill="#5D6E1E"/>
<path d="M559.943 437.889H554.699L556.447 335.125H558.195L559.943 437.889Z" fill="#E6E6E6"/>
<path d="M564.313 270.427L572.779 257.303C570.268 250.346 567.369 243.537 564.094 236.908L558.619 241.343L562.954 234.624C558.823 226.467 555.573 221.328 555.573 221.328C555.573 221.328 538.595 248.166 532.922 276.582L543.786 293.423L531.759 283.679C531.331 286.989 531.111 290.323 531.1 293.661C531.1 327.314 542.057 354.596 555.573 354.596C569.089 354.596 580.046 327.314 580.046 293.661C580.046 283.228 577.693 272.313 574.447 262.216L564.313 270.427Z" fill="#E6E6E6"/>
<path d="M541.477 294.152H429.592V376.791H429.66V393.244L446.062 376.791H541.477V294.152Z" fill="#5D6E1E"/>
<path d="M399.987 470.642H300.723V474.577H399.987V470.642Z" fill="#E6E6E6"/>
<path d="M581 470.642H481.199V474.577H581V470.642Z" fill="#E6E6E6"/>
<path d="M219.639 470.642H120.247V474.577H219.639V470.642Z" fill="#E6E6E6"/>
<path d="M580.592 437.259H0V438.356H580.592V437.259Z" fill="#3F3D56"/>
<path d="M455.371 456.21L467.06 456.217L467.061 454.356L455.372 454.349L455.371 456.21Z" fill="#3F3D56"/>
<path d="M370.859 454.769L373.271 455.329L464.927 455.378L465.751 453.452C467.188 450.148 467.682 446.508 467.176 442.939C466.781 440.278 465.792 437.635 463.545 436.487L459.478 409.311L408.769 409.22L389.15 425.094C389.15 425.094 379.896 424.927 374.868 431.205C373.054 433.54 371.983 436.368 371.795 439.322L371.596 442.588L370.859 454.769Z" fill="#5D6E1E"/>
<path d="M390.99 465.668C397.241 465.668 402.308 460.585 402.308 454.315C402.308 448.045 397.241 442.962 390.99 442.962C384.739 442.962 379.672 448.045 379.672 454.315C379.672 460.585 384.739 465.668 390.99 465.668Z" fill="#3F3D56"/>
<path d="M390.99 460.29C394.28 460.29 396.947 457.615 396.947 454.315C396.947 451.015 394.28 448.34 390.99 448.34C387.7 448.34 385.033 451.015 385.033 454.315C385.033 457.615 387.7 460.29 390.99 460.29Z" fill="#CCCCCC"/>
<path d="M446.837 465.698C453.088 465.698 458.155 460.615 458.155 454.345C458.155 448.075 453.088 442.992 446.837 442.992C440.586 442.992 435.519 448.075 435.519 454.345C435.519 460.615 440.586 465.698 446.837 465.698Z" fill="#3F3D56"/>
<path d="M446.837 460.32C450.127 460.32 452.794 457.645 452.794 454.345C452.794 451.045 450.127 448.37 446.837 448.37C443.547 448.37 440.88 451.045 440.88 454.345C440.88 457.645 443.547 460.32 446.837 460.32Z" fill="#CCCCCC"/>
<path d="M396.945 423.238L424.324 423.25H427.666L433.308 423.254V422.841L433.312 417.864L433.316 412.275H429.563L426.22 412.271L420.3 412.267H416.958L410.124 412.263L396.945 423.238Z" fill="white"/>
<path d="M437.763 423.258L452.233 423.266L452.237 420.418V415.441L452.241 412.287H450.122L446.78 412.283L437.767 412.279L437.763 423.258Z" fill="white"/>
<path d="M431.445 434.983L433.301 434.984L433.303 431.448L431.447 431.447L431.445 434.983Z" fill="#3F3D56"/>
<path d="M404.365 428.268L404.366 426.407L400.841 426.405L400.84 428.266L404.365 428.268Z" fill="#3F3D56"/>
<path d="M403.064 427.223L402.86 427.223C401.832 427.222 400.846 426.812 400.119 426.082C399.392 425.352 398.984 424.362 398.985 423.331C398.985 422.299 399.394 421.31 400.122 420.581C400.85 419.852 401.836 419.442 402.864 419.443L403.069 419.443L403.064 427.223Z" fill="#3F3D56"/>
<path d="M371.596 442.588C373 442.742 374.411 442.393 375.584 441.604C376.756 440.816 377.613 439.637 378.004 438.277C378.395 436.917 378.294 435.461 377.721 434.168C377.147 432.874 376.137 431.825 374.868 431.205C373.054 433.54 371.983 436.368 371.795 439.322L371.596 442.588Z" fill="#3F3D56"/>
<path d="M426.22 412.271L433.308 422.841L433.312 417.864L429.563 412.275L426.22 412.271Z" fill="#F2F2F2"/>
<path d="M446.78 412.283L452.237 420.418V415.441L450.122 412.287L446.78 412.283Z" fill="#F2F2F2"/>
<path d="M416.958 412.267L424.324 423.25H427.666L420.3 412.267H416.958Z" fill="#F2F2F2"/>
<path d="M268.358 0.687506L268.283 0.728832C267.466 1.17697 266.55 1.41339 265.619 1.41667C264.688 1.41995 263.771 1.18996 262.951 0.747589C262.904 0.72202 262.857 0.696773 262.81 0.671847C261.99 0.23283 261.075 0.00471578 260.145 0.00793485C259.216 0.0111539 258.302 0.245607 257.485 0.690293L257.414 0.728832C256.597 1.17697 255.682 1.41339 254.751 1.41667C253.82 1.41995 252.903 1.18996 252.083 0.747589C252.034 0.721045 251.985 0.694847 251.936 0.66899C251.126 0.231985 250.221 0.00247152 249.301 0.000838624C248.381 -0.000794275 247.475 0.225506 246.663 0.659631C244.183 1.99927 240.831 4.28974 240.845 6.87645C240.846 6.97875 240.852 7.08094 240.863 7.18264C241.151 9.86895 249.886 10.5534 254.684 9.28745C258.261 10.1061 261.976 10.1061 265.553 9.28745C270.33 10.5737 279.243 9.83679 279.503 7.11965C279.513 7.01785 279.518 6.91561 279.517 6.81333C279.502 4.22522 276.12 1.95876 273.625 0.637972C272.811 0.210743 271.904 -0.00827321 270.985 0.000368211C270.067 0.00900963 269.164 0.245038 268.358 0.687506Z" fill="#E6E6E6"/>
<path d="M508.993 89.3804L508.918 89.4217C508.101 89.8699 507.185 90.1063 506.254 90.1096C505.323 90.1128 504.406 89.8829 503.586 89.4405C503.539 89.4149 503.492 89.3897 503.445 89.3647C502.625 88.9257 501.709 88.6976 500.78 88.7008C499.851 88.7041 498.937 88.9385 498.12 89.3832L498.049 89.4217C497.232 89.8699 496.317 90.1063 495.386 90.1096C494.455 90.1128 493.538 89.8829 492.718 89.4405C492.669 89.4139 492.62 89.3877 492.571 89.3619C491.761 88.9249 490.856 88.6954 489.936 88.6937C489.016 88.6921 488.11 88.9184 487.298 89.3525C484.818 90.6922 481.466 92.9826 481.48 95.5694C481.481 95.6716 481.487 95.7738 481.498 95.8755C481.786 98.5619 490.521 99.2463 495.319 97.9803C498.896 98.799 502.611 98.799 506.187 97.9803C510.965 99.2666 519.878 98.5297 520.138 95.8126C520.148 95.7107 520.152 95.6085 520.152 95.5062C520.137 92.9181 516.755 90.6517 514.26 89.3309C513.446 88.9036 512.539 88.6846 511.62 88.6933C510.701 88.7019 509.799 88.9379 508.993 89.3804Z" fill="#E6E6E6"/>
<path d="M87.6009 94.3315L87.5253 94.3728C86.7085 94.8209 85.793 95.0573 84.862 95.0606C83.9309 95.0639 83.0138 94.8339 82.1938 94.3915C82.1466 94.366 82.0996 94.3407 82.0529 94.3158C81.2329 93.8768 80.3172 93.6487 79.3878 93.6519C78.4584 93.6551 77.5443 93.8896 76.7274 94.3342L76.6568 94.3728C75.84 94.8209 74.9245 95.0573 73.9935 95.0606C73.0625 95.0639 72.1453 94.8339 71.3254 94.3915C71.2763 94.365 71.2275 94.3388 71.1791 94.3129C70.3688 93.8759 69.4635 93.6464 68.5435 93.6448C67.6235 93.6431 66.7174 93.8694 65.9056 94.3036C63.4258 95.6432 60.0733 97.9337 60.0881 100.52C60.0886 100.623 60.0944 100.725 60.1054 100.827C60.3937 103.513 69.1284 104.197 73.9267 102.931C77.5036 103.75 81.2183 103.75 84.7952 102.931C89.573 104.218 98.4853 103.481 98.7458 100.764C98.7556 100.662 98.7602 100.56 98.7597 100.457C98.7449 97.8692 95.3628 95.6027 92.8674 94.2819C92.0533 93.8547 91.1467 93.6357 90.228 93.6443C89.3092 93.653 88.4069 93.889 87.6009 94.3315Z" fill="#E6E6E6"/>
<path d="M72.0297 476.655H60.3408V478.516H72.0297V476.655Z" fill="#3F3D56"/>
<path d="M156.542 477.071L154.13 477.631L62.4745 477.68L61.6503 475.754C60.2128 472.45 59.7195 468.81 60.2253 465.241C60.6201 462.58 61.6092 459.937 63.856 458.789L67.9233 431.614L118.632 431.523L138.251 447.396C138.251 447.396 147.505 447.229 152.533 453.508C154.347 455.842 155.418 458.671 155.606 461.624L155.805 464.891L156.542 477.071Z" fill="#5D6E1E"/>
<path d="M136.411 487.97C142.662 487.97 147.729 482.887 147.729 476.617C147.729 470.347 142.662 465.264 136.411 465.264C130.16 465.264 125.093 470.347 125.093 476.617C125.093 482.887 130.16 487.97 136.411 487.97Z" fill="#3F3D56"/>
<path d="M136.411 482.592C139.701 482.592 142.368 479.917 142.368 476.617C142.368 473.317 139.701 470.642 136.411 470.642C133.121 470.642 130.454 473.317 130.454 476.617C130.454 479.917 133.121 482.592 136.411 482.592Z" fill="#CCCCCC"/>
<path d="M80.5639 488C86.8146 488 91.8818 482.917 91.8818 476.647C91.8818 470.377 86.8146 465.294 80.5639 465.294C74.3133 465.294 69.2461 470.377 69.2461 476.647C69.2461 482.917 74.3133 488 80.5639 488Z" fill="#3F3D56"/>
<path d="M80.5639 482.622C83.8538 482.622 86.5207 479.947 86.5207 476.647C86.5207 473.347 83.8538 470.672 80.5639 470.672C77.2741 470.672 74.6072 473.347 74.6072 476.647C74.6072 479.947 77.2741 482.622 80.5639 482.622Z" fill="#CCCCCC"/>
<path d="M130.456 445.54L103.077 445.553H99.7353L94.0928 445.556V445.143L94.0889 440.166L94.085 434.577H97.839L101.181 434.573L107.101 434.569H110.443L117.277 434.565L130.456 445.54Z" fill="white"/>
<path d="M89.6378 445.56L75.1684 445.568L75.1644 442.72V437.743L75.1605 434.589H77.2792L80.6212 434.585L89.6339 434.581L89.6378 445.56Z" fill="white"/>
<path d="M95.9524 453.747H94.097V457.283H95.9524V453.747Z" fill="#3F3D56"/>
<path d="M126.564 450.566L126.563 448.705L123.037 448.707L123.038 450.568L126.564 450.566Z" fill="#3F3D56"/>
<path d="M124.335 441.744H124.539C125.048 441.744 125.552 441.845 126.023 442.04C126.493 442.236 126.921 442.522 127.281 442.884C127.641 443.245 127.926 443.674 128.121 444.145C128.316 444.617 128.416 445.123 128.416 445.634C128.416 446.666 128.008 447.655 127.281 448.385C126.553 449.114 125.567 449.524 124.539 449.524H124.335L124.335 441.744Z" fill="#3F3D56"/>
<path d="M155.805 464.891C154.402 465.044 152.99 464.695 151.818 463.906C150.646 463.118 149.789 461.939 149.398 460.579C149.007 459.219 149.107 457.763 149.68 456.47C150.254 455.176 151.264 454.127 152.533 453.508C154.347 455.842 155.418 458.671 155.606 461.624L155.805 464.891Z" fill="#3F3D56"/>
<path d="M101.181 434.573L94.0928 445.143L94.0889 440.166L97.839 434.577L101.181 434.573Z" fill="#F2F2F2"/>
<path d="M80.6212 434.585L75.1644 442.72V437.743L77.2791 434.589L80.6212 434.585Z" fill="#F2F2F2"/>
<path d="M110.443 434.569L103.077 445.553H99.7354L107.101 434.569H110.443Z" fill="#F2F2F2"/>
<path d="M481.615 353.084L467.327 334.658L475.636 328.175L482.4 336.9L505.254 312.701L512.896 319.963L481.615 353.084Z" fill="white"/>
<path d="M4.14575 315.062H116.031V397.701H115.963V414.154L99.5608 397.701H4.14575V315.062Z" fill="#5D6E1E"/>
<path d="M56.9167 375.962L42.629 357.535L50.9381 351.052L57.7027 359.777L80.5558 335.578L88.198 342.84L56.9167 375.962Z" fill="white"/>
</g>
<defs>
<clipPath id="clip0_14_753">
<rect width="581" height="488" fill="white"/>
</clipPath>
</defs>
</svg>
