<svg width="467" height="60" viewBox="0 0 467 60" fill="none" xmlns="http://www.w3.org/2000/svg">
<path d="M36.1469 30.4086C33.8776 26.6125 29.9928 23.935 25.4926 23.0646L9.54896 19.7032C8.88416 19.5754 8.32529 19.1535 8.0431 18.5672C7.76091 17.9818 7.79103 17.3032 8.12255 16.7416L18.7212 0.147891L13.5589 0L7.03224 8.63344L3.54568 13.3162L1.83158 15.6696C1.27998 16.4613 0.671772 17.244 0.336616 17.9763C-0.0203369 18.7334 -0.109868 19.4549 0.14771 20.0538C0.39603 20.6675 1.0033 21.2382 1.73572 21.6968C2.47728 22.1661 3.29279 22.5195 4.19689 22.8738C5.08634 23.2254 5.98857 23.5588 6.89724 23.8784C10.5482 25.1613 14.2257 26.217 18.0301 27.2134C19.9806 27.7942 22.0454 28.5722 23.6901 30.3074C24.4919 31.1757 25.09 32.3163 25.3174 33.4971C25.5511 34.6788 25.4745 35.8423 25.2699 36.9179C25.0544 37.9928 24.7175 39.0028 24.322 39.9653C24.122 40.4437 23.9064 40.9178 23.6855 41.3743L23.0426 42.6921L20.4665 47.9421L14.6208 59.82H31.1004L37.3339 42.8693C38.849 38.7471 38.4161 34.2047 36.1469 30.4086Z" fill="#5D6E1E"/>
<path d="M61.676 43V17.944H67.328V43H61.676ZM53.72 22.516V17.584H75.284V22.516H53.72ZM82.4002 32.524V28.348H87.7642C88.8922 28.348 89.7562 28.06 90.3562 27.484C90.9802 26.908 91.2922 26.128 91.2922 25.144C91.2922 24.232 90.9922 23.476 90.3922 22.876C89.7922 22.276 88.9282 21.976 87.8002 21.976H82.4002V17.584H88.4482C90.1282 17.584 91.6042 17.908 92.8762 18.556C94.1482 19.18 95.1442 20.056 95.8642 21.184C96.5842 22.312 96.9442 23.608 96.9442 25.072C96.9442 26.56 96.5842 27.868 95.8642 28.996C95.1442 30.1 94.1362 30.964 92.8402 31.588C91.5442 32.212 90.0202 32.524 88.2682 32.524H82.4002ZM78.0802 43V17.584H83.7322V43H78.0802ZM91.9042 43L83.9842 32.056L89.1682 30.652L98.6002 43H91.9042ZM100.712 43V17.584H106.364V43H100.712ZM115.219 33.748V29.356H120.691C121.387 29.356 122.023 29.212 122.599 28.924C123.175 28.636 123.631 28.216 123.967 27.664C124.303 27.112 124.471 26.44 124.471 25.648C124.471 24.88 124.303 24.22 123.967 23.668C123.631 23.116 123.175 22.696 122.599 22.408C122.023 22.12 121.387 21.976 120.691 21.976H115.219V17.584H121.519C123.127 17.584 124.579 17.908 125.875 18.556C127.171 19.204 128.191 20.14 128.935 21.364C129.703 22.564 130.087 23.992 130.087 25.648C130.087 27.304 129.703 28.744 128.935 29.968C128.191 31.168 127.171 32.104 125.875 32.776C124.579 33.424 123.127 33.748 121.519 33.748H115.219ZM110.899 43V17.584H116.551V43H110.899ZM132.899 43V17.584H138.551V43H132.899ZM137.255 43V38.032H149.819V43H137.255ZM152.718 43V17.584H158.37V43H152.718ZM157.038 43V38.104H170.97V43H157.038ZM157.038 32.38V27.664H169.71V32.38H157.038ZM157.038 22.444V17.584H170.79V22.444H157.038ZM178.323 43V38.032H184.623C186.159 38.032 187.503 37.732 188.655 37.132C189.807 36.508 190.695 35.608 191.319 34.432C191.943 33.256 192.255 31.864 192.255 30.256C192.255 28.648 191.931 27.268 191.283 26.116C190.659 24.964 189.771 24.076 188.619 23.452C187.491 22.828 186.159 22.516 184.623 22.516H178.143V17.584H184.695C186.615 17.584 188.379 17.896 189.987 18.52C191.619 19.12 193.035 19.996 194.235 21.148C195.459 22.276 196.395 23.62 197.043 25.18C197.715 26.716 198.051 28.42 198.051 30.292C198.051 32.14 197.715 33.844 197.043 35.404C196.395 36.964 195.471 38.308 194.271 39.436C193.071 40.564 191.655 41.44 190.023 42.064C188.415 42.688 186.663 43 184.767 43H178.323ZM174.507 43V17.584H180.159V43H174.507Z" fill="#5D6E1E"/>
<path d="M204.855 43L214.935 17.584H220.047L230.019 43H224.043L216.411 21.904H218.463L210.723 43H204.855ZM210.579 38.392V33.784H224.439V38.392H210.579ZM236.669 33.748V29.356H242.141C242.837 29.356 243.473 29.212 244.049 28.924C244.625 28.636 245.081 28.216 245.417 27.664C245.753 27.112 245.921 26.44 245.921 25.648C245.921 24.88 245.753 24.22 245.417 23.668C245.081 23.116 244.625 22.696 244.049 22.408C243.473 22.12 242.837 21.976 242.141 21.976H236.669V17.584H242.969C244.577 17.584 246.029 17.908 247.325 18.556C248.621 19.204 249.641 20.14 250.385 21.364C251.153 22.564 251.537 23.992 251.537 25.648C251.537 27.304 251.153 28.744 250.385 29.968C249.641 31.168 248.621 32.104 247.325 32.776C246.029 33.424 244.577 33.748 242.969 33.748H236.669ZM232.349 43V17.584H238.001V43H232.349ZM258.668 33.748V29.356H264.14C264.836 29.356 265.472 29.212 266.048 28.924C266.624 28.636 267.08 28.216 267.416 27.664C267.752 27.112 267.92 26.44 267.92 25.648C267.92 24.88 267.752 24.22 267.416 23.668C267.08 23.116 266.624 22.696 266.048 22.408C265.472 22.12 264.836 21.976 264.14 21.976H258.668V17.584H264.968C266.576 17.584 268.028 17.908 269.324 18.556C270.62 19.204 271.64 20.14 272.384 21.364C273.152 22.564 273.536 23.992 273.536 25.648C273.536 27.304 273.152 28.744 272.384 29.968C271.64 31.168 270.62 32.104 269.324 32.776C268.028 33.424 266.576 33.748 264.968 33.748H258.668ZM254.348 43V17.584H260V43H254.348Z" fill="black"/>
</svg>
